<?xml version="1.0" encoding="UTF-8"?>
<svg width="69px" height="69px" viewBox="0 0 69 69" version="1.1" xmlns="http://www.w3.org/2000/svg" xmlns:xlink="http://www.w3.org/1999/xlink">
    <!-- Generator: Sketch 52.1 (67048) - http://www.bohemiancoding.com/sketch -->
    <title>aparat-logo</title>
    <desc>Created with Sketch.</desc>
    <g id="Page-1" stroke="none" stroke-width="1" fill="none" fill-rule="evenodd">
        <g id="aparat-logo">
            <g id="Group">
                <path d="M29.81,2.39 L23.51,0.72 C17.862943,-0.77904572 12.06978,2.58313791 10.57,8.23 L9,14.16 C14.182586,7.72726376 21.626533,3.51701609 29.81,2.39 Z" id="Path" fill="#231F20"></path>
                <path d="M2.22,39.69 L0.68,45.49 C-0.819046,51.137057 2.543138,56.9302203 8.19,58.43 L14.19,60.03 C7.785492,54.9953325 3.511889,47.7334212 2.22,39.69 Z" id="Path" fill="#231F20"></path>
                <path d="M60.78,10.61 L54,8.82 C60.869123,14.1038778 65.335137,21.9194019 66.4,30.52 L68.25,23.52 C69.73264,17.89483 66.395762,12.1278836 60.78,10.61 Z" id="Path" fill="#231F20"></path>
                <path d="M39,66.62 L45.45,68.33 C51.097057,69.8290457 56.89022,66.4668621 58.39,60.82 L60.21,53.98 C55.083976,60.8260117 47.460467,65.3692061 39,66.62 Z" id="Path" fill="#231F20"></path>
                <path d="M34.49,4.9 C22.505784,4.9 11.70161,12.1191177 7.115449,23.1910899 C2.529288,34.2630621 5.064305,47.0074533 13.538426,55.4815739 C22.012547,63.9556945 34.756938,66.4907116 45.82891,61.9045505 C56.900882,57.3183895 64.12,46.5142163 64.12,34.53 C64.12,18.1658029 50.854197,4.9 34.49,4.9 Z M17.71,19.68 C18.594678,15.092887 23.029988,12.0911064 27.617284,12.9748333 C32.20458,13.8585603 35.20728,18.293248 34.324504,22.8807273 C33.441727,27.4682066 29.007662,30.4718254 24.42,29.59 C22.215709,29.1662984 20.270158,27.8839602 19.011669,26.0252975 C17.75318,24.1666348 17.284928,21.8840271 17.71,19.68 Z M30,45.28 C29.115322,49.867113 24.680012,52.8688936 20.092716,51.9851667 C15.50542,51.1014397 12.50272,46.666752 13.385496,42.0792727 C14.268273,37.4917934 18.702338,34.4881746 23.29,35.37 C25.494291,35.7937016 27.439842,37.0760398 28.698331,38.9347025 C29.95682,40.7933652 30.425072,43.0759729 30,45.28 Z M33.59,38.43 C31.554147,38.0361572 30.221447,36.0684756 30.611139,34.0318239 C31.000831,31.9951723 32.965792,30.658464 35.003234,31.0440041 C37.040676,31.4295442 38.381386,33.3917767 38,35.43 C37.616059,37.4706248 35.650667,38.8137173 33.61,38.43 L33.59,38.43 Z M51.24,49.37 C50.355322,53.957113 45.920012,56.9588936 41.332716,56.0751667 C36.74542,55.1914397 33.74272,50.756752 34.625496,46.1692727 C35.508273,41.5817934 39.942338,38.5781746 44.53,39.46 C46.737973,39.8790968 48.688453,41.1595088 49.951057,43.0187072 C51.213661,44.8779055 51.684614,47.1630814 51.26,49.37 L51.24,49.37 Z M45.64,33.69 C41.052887,32.8053224 38.051106,28.3700124 38.934833,23.7827162 C39.81856,19.1954199 44.253248,16.1927201 48.840727,17.0754963 C53.428207,17.9582725 56.431825,22.3923378 55.55,26.98 C54.662614,31.5569205 50.239633,34.5532777 45.66,33.68 L45.64,33.69 Z" id="Shape" fill="#ED145B" fill-rule="nonzero"></path>
            </g>
        </g>
    </g>
</svg>